<?xml version="1.0" encoding="utf-8"?>
<!-- Generator: Adobe Illustrator 24.0.0, SVG Export Plug-In . SVG Version: 6.00 Build 0)  -->
<svg version="1.1" id="_x3C_Layer_x3E_" xmlns="http://www.w3.org/2000/svg" xmlns:xlink="http://www.w3.org/1999/xlink" x="0px"
	 y="0px" viewBox="0 0 2848 1780" style="enable-background:new 0 0 2848 1780;" xml:space="preserve">
<style type="text/css">
	.st0{fill:#FFFFFF;}
	.st1{fill:#D2E4FF;}
	.st2{fill:none;}
	.st3{fill:#FF4545;}
	.st4{font-family:'ArialRoundedMTBold';}
	.st5{font-size:471.5289px;}
	.st6{fill:#2E3552;}
	.st7{fill:#9FC1F4;}
	.st8{fill:#C3DAFC;}
	.st9{fill:#EBF3FA;}
	.st10{fill:#BDD8FF;}
	.st11{fill:#6A9AD3;}
	.st12{fill:#5588BC;}
	.st13{fill:#77A4E5;}
	.st14{fill:#AFCDFB;}
	.st15{fill:#233862;}
	.st16{fill:#163560;}
	.st17{fill:#B5453C;}
	.st18{fill:#F4A269;}
	.st19{fill:#F99746;}
	.st20{fill:#FFB27D;}
	.st21{fill:#ED7D2B;}
	.st22{fill:#1C468A;}
	.st23{fill:#ED985F;}
	.st24{fill:#C6601A;}
	.st25{fill:#F1A34F;}
	.st26{fill:#D3671E;}
	.st27{fill:#B25618;}
	.st28{fill:#E78B37;}
	.st29{fill:#2B478B;}
	.st30{font-family:'MyriadPro-Regular';}
	.st31{font-size:72px;}
</style>
<rect x="2.09" y="267.98" class="st0" width="2843.83" height="1314.91"/>
<path class="st1" d="M2634.19,1229.96c0.06,11.52-0.65,23-2.17,34.35c-2.53,18.93-7.29,37.5-14.41,55.29
	c-5.01,12.54-11.19,24.68-18.6,36.27c-2.13,3.34-4.36,6.62-6.69,9.86H338.43c0,0-205.27-416.87,74.38-618.69
	c3.5-2.52,7-5,10.52-7.42c3.25-2.22,6.51-4.4,9.78-6.55c3.17-2.1,6.38-4.13,9.59-6.15c84.29-52.8,176.59-78.91,273.41-95.1
	c3.41-0.57,6.82-1.13,10.25-1.67c3.25-0.53,6.5-1.03,9.76-1.53c78.49-12,159.76-18.32,241.99-27.7c28.61-3.27,57.36-6.91,86.14-11.3
	c115.16-17.53,230.95-46.95,342.42-111.93c35.2-20.52,70.68-37.12,106.02-50.2c2.43-0.9,4.86-1.79,7.3-2.65
	c2.39-0.85,4.76-1.68,7.15-2.5c69.94-24.04,139.07-34.41,204.05-34.24c2.56,0,5.11,0.02,7.65,0.06c2.43,0.04,4.86,0.1,7.28,0.16
	c20.63,0.56,40.79,2.2,60.4,4.79c8.21,1.08,16.32,2.33,24.31,3.74c11.75,2.08,23.27,4.49,34.53,7.24
	c144.73,35.22,247.18,123.68,253.05,215.16c3.96,61.66,12.21,120.9,30.47,172.31c8.46,23.8,19.07,45.93,32.4,65.83
	c3.63,5.43,7.46,10.67,11.5,15.76c39.86,50.06,100.43,83.05,192.74,88.53c64.16,3.82,118.22,29.31,159.35,67.03
	c0.38,0.35,0.77,0.7,1.15,1.06C2602.05,1081.76,2633.83,1156.57,2634.19,1229.96z"/>
<rect x="937.49" y="897.97" class="st2" width="898.15" height="419.14"/>
<text transform="matrix(0.9984 0 0 1 937.4924 1241.2441)" class="st3 st4 st5">404</text>
<path class="st6" d="M2274.89,1251.93H610.42c-0.11,0-0.2-0.09-0.2-0.2v-5.19c0-0.11,0.09-0.2,0.2-0.2h1664.48
	c0.11,0,0.2,0.09,0.2,0.2v5.19C2275.09,1251.84,2275,1251.93,2274.89,1251.93z"/>
<path class="st7" d="M2088.18,1235.28c0,0,19.09-89.08-5.51-90.81C2058.08,1142.74,2088.18,1235.28,2088.18,1235.28z"/>
<path class="st7" d="M2084.81,1237.38c0,0-35.97-57.56-56.47-55.44C2007.83,1184.06,2084.81,1237.38,2084.81,1237.38z"/>
<path class="st8" d="M849.18,1071.07c-5.12-17.99-36.99-12.37-36.99-12.37s-21.64,31.48-27.94,32.23
	c-6.3,0.75,12.99-30.35,12.99-30.35c-12.2-1.12-43.29,13.12-43.29,13.12s1.97,36.72-4.33,35.97c-6.3-0.75,0-32.6,0-32.6
	c-11.81,3.37-22.83,16.49-22.83,16.49c-13.77,21.36,15.74,37.1,15.74,37.1s0.39,12.74-7.87,27.36c0,0-10.39,15.03-7.06,34.46h-9.14
	c1.75-13.98-5.58-24.59-5.58-24.59c-6.27-11.09-5.97-20.75-5.97-20.75s22.39-11.94,11.94-28.14c0,0-8.36-9.95-17.32-12.51
	c0,0,4.78,24.16,0,24.73c-4.78,0.57-3.28-27.29-3.28-27.29s-23.59-10.8-32.84-9.95c0,0,14.63,23.6,9.85,23.03
	c-4.78-0.57-21.2-24.45-21.2-24.45s-24.18-4.26-28.06,9.38c-3.88,13.65,2.39,20.47,5.97,21.32c3.58,0.85,26.57,0.57,25.97,3.41
	c-0.6,2.84-16.12,7.39-24.78,4.83c0,0,9.55,22.46,22.09,21.32c12.54-1.14,16.42-8.53,24.18-9.1c7.76-0.57,13.43,1.42,9.55,3.41
	c-3.88,1.99-17.02,0.65-23.29,5.73c-6.27,5.07-11.34,8.2,0.3,10.48c11.64,2.27,32.54,0.85,36.72-7.68c0.18-0.37,0.36-0.72,0.52-1.07
	c-0.25,0.7-0.52,1.07-0.52,1.07c2.15,1.19,5.37,6.88,7.6,11.25c0.32,0.74,0.82,1.77,1.57,3.17c0,0,0,0,0,0
	c0.3,0.63,0.55,1.15,0.71,1.51c2.58,6.14,2.68,15.09,2.4,20.89h-9.89h-14.36h-8.95v1.69h1.93c0.65,20.53,13.1,38.23,31.11,47.16
	h-22.38c-3.8,0-6.88,2.93-6.88,6.55h111.59c0-3.62-3.08-6.55-6.88-6.55h-22.1c18.01-8.94,30.46-26.64,31.11-47.16h1.34v-1.69h-61.62
	c1.4-2.93,3.11-5.8,5.1-7.91c0.24-0.24,0.59-0.58,1.03-1c1.01-0.89,1.71-1.56,2.19-2.06c3.1-2.84,7.39-6.46,9.46-6.81
	c0,0-0.1-0.36-0.09-0.99c0.03,0.32,0.06,0.64,0.09,0.99c0.71,7.9,16.81,14.81,26.71,16.22c9.91,1.42,6.84-2.46,3.43-8.21
	c-3.41-5.75-14.21-8.32-16.68-10.97c-2.46-2.65,2.63-2.65,8.6-0.06c5.97,2.6,6.79,9.52,16.36,13.88
	c9.57,4.37,23.98-10.76,23.98-10.76c-7.63-0.37-18.53-8.26-18.13-10.67c0.39-2.41,18.5,4.17,21.59,4.48
	c3.09,0.32,10.14-3.35,11.22-15.22c1.09-11.87-19.34-15.18-19.34-15.18s-4.71,3.34-10.03,6.69c-1.05-1.3-2.76-2.73-4.75-4.33
	c1.76-1.48,3.34-2.75,4.32-3.54c1.96,0.51,4.11,0.9,6.5,1.12c16.53,1.5,29.12-28.11,29.12-28.11c-11.41,3.37-31.88-2.62-32.66-6.37
	c-0.79-3.75,29.52-3.37,34.24-4.5C846.03,1098.05,854.29,1089.06,849.18,1071.07z M765.22,1155.67c-0.94-0.46-0.88-2.01-0.27-4.05
	c1.3,0.28,2.64,0.52,4.01,0.73C767.58,1154.71,766.25,1156.18,765.22,1155.67z M745.07,1181.55c0,0-5.42,3.82-9.2,10.91h-3.91
	c-0.48-7.44-0.67-20.72,3.04-29.58c0.22-0.47,0.54-1.16,0.94-1.99c0.99-1.84,1.65-3.2,2.07-4.17c2.95-5.75,7.19-13.25,10.02-14.83
	c0,0-0.36-0.48-0.69-1.41c0.22,0.45,0.45,0.91,0.69,1.41c0.7,1.43,1.76,2.71,3.11,3.85c-5.38,9.54,4.97,21.04,4.97,21.04
	S753.41,1174.51,745.07,1181.55z M788.54,1134.37c-8.46-2.22-18.67-1.81-22.4-3.72c-5.12-2.62,2.36-5.25,12.59-4.5
	c6.88,0.5,11.46,5.08,18.74,8.47C794.63,1134.39,791.5,1134.33,788.54,1134.37z"/>
<g>
	<path class="st1" d="M1975.05,1177.15c-0.72,1.07-0.48,2.36,0.54,2.88c1.01,0.52,2.41,0.07,3.13-1c0.72-1.07,1.15-5.41,1.15-5.41
		S1975.77,1176.08,1975.05,1177.15z"/>
	<path class="st1" d="M1939.98,1157.62c-0.72,1.07-0.48,2.36,0.54,2.88c1.01,0.52,2.41,0.07,3.13-1c0.72-1.07,1.15-5.41,1.15-5.41
		S1940.7,1156.55,1939.98,1157.62z"/>
	<path class="st1" d="M1934.71,1192.86c-0.72,1.07-0.48,2.36,0.54,2.88c1.01,0.52,2.41,0.07,3.13-1c0.72-1.07,1.15-5.41,1.15-5.41
		S1935.42,1191.79,1934.71,1192.86z"/>
	<path class="st1" d="M2033.26,1129.17c-0.82,1.23-0.55,2.71,0.62,3.31c1.16,0.6,2.77,0.08,3.59-1.15c0.82-1.23,1.32-6.2,1.32-6.2
		S2034.08,1127.94,2033.26,1129.17z"/>
	<path class="st1" d="M2030.26,1159.27c-0.82,1.23-0.55,2.71,0.62,3.31c1.16,0.6,2.77,0.08,3.59-1.15c0.82-1.23,1.32-6.2,1.32-6.2
		S2031.08,1158.04,2030.26,1159.27z"/>
	<path class="st1" d="M1985.56,1133.64c-0.82,1.23-0.55,2.71,0.62,3.31c1.16,0.6,2.77,0.08,3.59-1.15c0.82-1.23,1.32-6.2,1.32-6.2
		S1986.38,1132.41,1985.56,1133.64z"/>
	<path class="st1" d="M1939.32,1115.45c-0.93,1.39-0.62,3.07,0.7,3.74c1.32,0.68,3.14,0.09,4.07-1.3c0.93-1.39,1.5-7.03,1.5-7.03
		S1940.25,1114.05,1939.32,1115.45z"/>
	<path class="st1" d="M1868.6,1110.72c-0.93,1.39-0.62,3.07,0.7,3.74c1.32,0.68,3.14,0.1,4.07-1.3c0.93-1.39,1.5-7.03,1.5-7.03
		S1869.54,1109.33,1868.6,1110.72z"/>
	<path class="st1" d="M1916.46,1074.47c-0.93,1.39-0.62,3.07,0.7,3.74c1.32,0.68,3.14,0.1,4.07-1.3c0.93-1.39,1.5-7.03,1.5-7.03
		S1917.39,1073.07,1916.46,1074.47z"/>
	<path class="st1" d="M1877.24,1066.46c-0.73,1.09-0.48,2.41,0.55,2.94c1.03,0.53,2.46,0.07,3.19-1.02
		c0.73-1.09,1.17-5.52,1.17-5.52S1877.97,1065.37,1877.24,1066.46z"/>
	<path class="st1" d="M1880.7,1040.22c-0.73,1.09-0.49,2.41,0.55,2.94c1.03,0.53,2.46,0.07,3.19-1.02c0.73-1.09,1.17-5.52,1.17-5.52
		S1881.43,1039.13,1880.7,1040.22z"/>
	<path class="st1" d="M1847.19,1077.78c-0.73,1.09-0.48,2.41,0.55,2.94s2.46,0.07,3.19-1.02c0.73-1.09,1.17-5.52,1.17-5.52
		S1847.92,1076.69,1847.19,1077.78z"/>
	<path class="st1" d="M1881.02,987.29c1.08-1.62,1.74-8.15,1.74-8.15s-6.18,3.7-7.26,5.31c-1.08,1.61-0.72,3.56,0.81,4.34
		C1877.82,989.58,1879.94,988.91,1881.02,987.29z"/>
	<path class="st1" d="M1846.9,946.37c-1.08,1.62-0.72,3.56,0.81,4.34c1.53,0.78,3.64,0.11,4.72-1.5c1.08-1.62,1.73-8.15,1.73-8.15
		S1847.98,944.76,1846.9,946.37z"/>
	<path class="st1" d="M1835.01,1024.22c-1.08,1.62-0.72,3.56,0.81,4.34c1.53,0.78,3.64,0.11,4.72-1.5c1.08-1.62,1.73-8.15,1.73-8.15
		S1836.09,1022.6,1835.01,1024.22z"/>
</g>
<path class="st7" d="M1891.26,897.26c-8.82,2.6-16.19,5.81-20.52,9.74c-19.35,17.57-56.35,15.31-56.35,15.31v-75.38
	C1848.6,858.06,1875.79,876.28,1891.26,897.26z"/>
<path class="st9" d="M2118.93,1190.57c-0.04,4.86-0.34,9.7-0.93,14.5c-0.85,6.96-2.29,13.83-4.35,20.48
	c-0.55,1.8-1.15,3.59-1.8,5.36c-2.14,5.86-4.78,11.53-7.94,16.95h-327.9V839.04c5.02,0.88,9.93,1.89,14.74,3.05
	c5.87,1.41,11.57,3.03,17.1,4.83c34.2,11.14,61.39,29.36,76.86,50.34c8.33,11.3,13.26,23.39,14.05,35.62
	c1.69,26.02,5.21,51.02,13.01,72.71c3.61,10.04,8.14,19.38,13.83,27.78c1.55,2.29,3.18,4.5,4.91,6.65
	c17.01,21.12,42.87,35.04,82.27,37.36c27.39,1.61,50.46,12.37,68.02,28.29c0.16,0.15,0.33,0.29,0.49,0.45
	C2105.22,1128.04,2118.78,1159.61,2118.93,1190.57z"/>
<g>
	<g>
		<path class="st10" d="M801.96,937.49v87.97H676.79v-44.55c-1.39,0.91-2.79,1.83-4.17,2.76v45.44h133.51v-92.27
			C804.74,937.05,803.35,937.26,801.96,937.49z"/>
	</g>
	<path class="st10" d="M797.59,938.19v83.41h-116.7v-43.28C716.86,956.04,756.26,945.02,797.59,938.19z"/>
</g>
<g>
	<g>
		<path class="st10" d="M1736.76,835.38v40.95h-93.41v-25.47c-1.04,0.36-2.08,0.74-3.11,1.12v27.08h99.63v-43.61
			C1738.83,835.42,1737.8,835.39,1736.76,835.38z"/>
	</g>
	<path class="st10" d="M1733.49,835.35v38.1h-87.1V849.8C1676.25,839.66,1705.76,835.28,1733.49,835.35z"/>
</g>
<path class="st9" d="M2119.93,1190.57c-0.04,4.86-0.34,9.7-0.93,14.5c-0.85,6.96-2.29,13.83-4.35,20.48
	c-0.55,1.8-1.15,3.59-1.8,5.36c-2.14,5.86-4.78,11.53-7.94,16.95h-327.9V839.04c5.02,0.88,9.93,1.89,14.74,3.05
	c5.87,1.41,11.57,3.03,17.1,4.83c34.2,11.14,61.39,29.36,76.86,50.34c8.33,11.3,13.26,23.39,14.05,35.62
	c1.69,26.02,5.21,51.02,13.01,72.71c3.61,10.04,8.14,19.38,13.83,27.78c1.55,2.29,3.18,4.5,4.91,6.65
	c17.01,21.12,42.87,35.04,82.27,37.36c27.39,1.61,50.46,12.37,68.02,28.29c0.16,0.15,0.33,0.29,0.49,0.45
	C2106.22,1128.04,2119.78,1159.61,2119.93,1190.57z"/>
<g>
	<g>
		<path class="st10" d="M1737.76,835.38v40.95h-93.41v-25.47c-1.04,0.36-2.08,0.74-3.11,1.12v27.08h99.63v-43.61
			C1739.83,835.42,1738.8,835.39,1737.76,835.38z"/>
	</g>
	<path class="st10" d="M1734.49,835.35v38.1h-87.1V849.8C1677.25,839.66,1706.76,835.28,1734.49,835.35z"/>
</g>
<path class="st9" d="M2121.93,1190.57c-0.04,4.86-0.34,9.7-0.93,14.5c-0.85,6.96-2.29,13.83-4.35,20.48
	c-0.55,1.8-1.15,3.59-1.8,5.36c-2.14,5.86-4.78,11.53-7.94,16.95h-327.9V839.04c5.02,0.88,9.93,1.89,14.74,3.05
	c5.87,1.41,11.57,3.03,17.1,4.83c34.2,11.14,61.39,29.36,76.86,50.34c8.33,11.3,13.26,23.39,14.05,35.62
	c1.69,26.02,5.21,51.02,13.01,72.71c3.61,10.04,8.14,19.38,13.83,27.78c1.55,2.29,3.18,4.5,4.91,6.65
	c17.01,21.12,42.87,35.04,82.27,37.36c27.39,1.61,50.46,12.37,68.02,28.29c0.16,0.15,0.33,0.29,0.49,0.45
	C2108.22,1128.04,2121.78,1159.61,2121.93,1190.57z"/>
<g>
	<g>
		<path class="st10" d="M1739.76,835.38v40.95h-93.41v-25.47c-1.04,0.36-2.08,0.74-3.11,1.12v27.08h99.63v-43.61
			C1741.83,835.42,1740.8,835.39,1739.76,835.38z"/>
	</g>
	<path class="st10" d="M1736.49,835.35v38.1h-87.1V849.8C1679.25,839.66,1708.76,835.28,1736.49,835.35z"/>
</g>
<g>
	<g>
		<g>
			<path class="st11" d="M839.81,1157.87c0,0-16.97-17.36-1.05-28.38c0,0,11.63-6.17,21.12-5.67c0,0-13.44,19.75-9.09,21.72
				c4.35,1.97,13.16-22.96,13.16-22.96s26.47-2.25,34.98,1.34c0,0-22.63,16.23-17.86,17.2c4.77,0.97,29.21-14.97,29.21-14.97
				s24.64,3.68,23.32,16.85c-1.31,13.17-9.8,17.24-13.53,16.89c-3.73-0.35-25.55-7.65-26.03-4.97
				c-0.48,2.68,12.66,11.44,21.86,11.85c0,0-17.37,16.79-28.91,11.95c-11.54-4.85-12.53-12.53-19.72-15.41
				c-7.2-2.88-13.34-2.87-10.37,0.06c2.97,2.94,15.99,5.79,20.11,12.17c4.11,6.38,7.81,10.68-4.14,9.11
				c-11.94-1.58-31.36-9.24-32.21-18.01C839.81,1157.87,839.81,1157.87,839.81,1157.87z"/>
			<g>
				<path class="st12" d="M921.5,1143.35c0,0-66.91-2.26-81.69,14.51c0,0-3.27,8.58-13.32,16.39l-1.57,3.74
					c0,0,11.59-10.72,15.74-11.37C840.66,1166.64,834.18,1145.86,921.5,1143.35z"/>
				<path class="st12" d="M826.49,1174.26c0,0-14.36,9.31-15.36,25.95l2.61,0.2c0,0,4.59-17.2,12.88-23.93
					C834.9,1169.76,826.49,1174.26,826.49,1174.26z"/>
			</g>
		</g>
		<g>
			<path class="st13" d="M780.48,1136.04c0,0,27-13.25,14.4-31.24c0,0-10.08-11.04-20.88-13.88c0,0,5.76,26.82,0,27.45
				c-5.76,0.63-3.96-30.29-3.96-30.29s-28.43-11.99-39.59-11.04c0,0,17.64,26.19,11.88,25.56c-5.76-0.63-25.56-27.14-25.56-27.14
				s-29.16-4.73-33.83,10.41c-4.68,15.15,2.88,22.72,7.2,23.66c4.32,0.95,32.03,0.63,31.31,3.79c-0.72,3.16-19.44,8.2-29.87,5.36
				c0,0,11.52,24.93,26.64,23.66c15.12-1.26,19.8-9.47,29.16-10.1c9.36-0.63,16.2,1.58,11.52,3.79c-4.68,2.21-20.52,0.72-28.07,6.36
				c-7.56,5.63-13.68,9.1,0.36,11.63c14.04,2.52,39.23,0.95,44.27-8.52C780.48,1136.04,780.48,1136.04,780.48,1136.04z"/>
			<g>
				<path class="st11" d="M696.25,1090.61c0,0,75.59,21.46,84.22,45.44c0,0-0.36,10.73,7.2,23.03v4.73c0,0-7.92-16.09-12.24-18.3
					C775.44,1145.51,792.36,1124.68,696.25,1090.61z"/>
				<path class="st11" d="M787.68,1159.08c0,0,11.66,15.52,5.01,34.41l-3-0.71c0,0,2.91-20.81-3.19-31.27
					C780.4,1151.04,787.68,1159.08,787.68,1159.08z"/>
			</g>
		</g>
		<g>
			<path class="st7" d="M823.43,1117.77c0,0-35.58-17.47-18.98-41.18c0,0,13.28-14.56,27.52-18.3c0,0-7.59,35.35,0,36.19
				c7.59,0.83,5.22-39.93,5.22-39.93s37.48-15.81,52.19-14.56c0,0-23.25,34.52-15.66,33.69c7.59-0.83,33.69-35.77,33.69-35.77
				s38.43-6.24,44.6,13.73c6.17,19.96-3.8,29.95-9.49,31.19c-5.69,1.25-42.23,0.83-41.28,4.99c0.95,4.16,25.62,10.81,39.38,7.07
				c0,0-15.18,32.86-35.11,31.2c-19.93-1.66-26.1-12.48-38.43-13.31c-12.34-0.83-21.35,2.08-15.18,4.99
				c6.17,2.91,27.04,0.95,37.01,8.38c9.96,7.43,18.03,12-0.47,15.33c-18.5,3.33-51.72,1.25-58.36-11.23
				C823.43,1117.77,823.43,1117.77,823.43,1117.77z"/>
			<g>
				<path class="st7" d="M934.45,1057.87c0,0-99.64,28.28-111.02,59.89c0,0,0.47,14.14-9.49,30.36v6.24c0,0,10.44-21.21,16.13-24.12
					C830.07,1130.24,807.77,1102.79,934.45,1057.87z"/>
				<path class="st7" d="M813.94,1148.13c0,0-15.37,20.45-6.61,45.35l3.95-0.93c0,0-3.84-27.43,4.2-41.22
					C823.52,1137.54,813.94,1148.13,813.94,1148.13z"/>
			</g>
		</g>
		<path class="st13" d="M822.23,1247.48c38.5,0,69.71-27.36,69.71-61.11H752.52C752.52,1220.12,783.73,1247.48,822.23,1247.48z"/>
		<path class="st14" d="M839.38,1247.01c-2.84,0.31-5.73,0.47-8.66,0.47c-38.5,0-69.7-27.36-69.7-61.11h17.32
			C778.33,1217.55,804.97,1243.27,839.38,1247.01z"/>
		<rect x="750.23" y="1186.37" class="st13" width="143.29" height="1.87"/>
	</g>
	<path class="st13" d="M889.33,1247.86H754.79l0,0c0-4.02,3.71-7.27,8.29-7.27h117.95C885.61,1240.59,889.33,1243.85,889.33,1247.86
		L889.33,1247.86z"/>
</g>
<path class="st10" d="M1814.4,1225.55V846.92c-5.52-1.8-11.23-3.41-17.1-4.83c-4.81-1.16-9.72-2.18-14.74-3.05v386.51v22.31h31.84
	h296.06c3.16-5.42,5.8-11.09,7.94-16.95c0.65-1.77,1.25-3.56,1.8-5.36H1814.4z"/>
<g>
	<path class="st8" d="M1163.45,787.57c-1.04-6.88-13.18-9.15-15.93-10.88c-1.64-1.03-5.45-5.61-8.09-8.93
		c0.38-0.23,0.59-0.36,0.59-0.36c-7.69-20.72-14.03-37.69-19.26-51.59c0.62-1.04,1.21-2.64,1.68-5.03
		c1.89-9.55-7.61-13.18-7.61-13.18c-0.05-0.02-0.1-0.05-0.15-0.07c5.66-41.76-7.96-44.6-7.96-44.6s-4.91-1.47-10.81-0.8
		c-2.01-4.24-6.03-6.85-12.67-7.18c-1.99-0.1-4.17,0.29-6.5,1.09c0.31-0.48,0.61-0.96,0.91-1.44c1.38-0.84,13.03-8.18,12.02-17.01
		c-0.2-1.75-0.62-3.07-1.18-4.07c-0.16-0.71-0.37-1.39-0.6-2.01c1.03-4.44,1.1-8.04-0.08-10.11c-2.15-3.76-6.16-6.39-9.18-7.95
		c1.27-0.24,2.93,0.38,2.93,0.38c-1.62-1.29-6.84-2.09-6.84-2.09c-18.59-23.19-47.26,6.84-52.48,14.67
		c-5.22,7.82-11.77,16.51-29.44,15.9c-34.75-1.2-36.97,29.44-29.85,45.13c0.1,0.22,17.14,26.67,17.14,26.67
		c0.32-0.52,0.85-1.17,1.57-1.94c-1.17,11.04-1.72,20.08-3.65,22.62c-4.04,5.32-23.13,36.97-6.62,51.74
		c-13.02-3.75-31.44,10.28-33.66,12.02h-0.22v109.5h154.99v0h77.5v-28.72v-80.78C1168.06,788.25,1165.86,787.91,1163.45,787.57z
		 M1059.36,768.35c1.56-2.06,7.29-11.44,14.3-24.01c-0.21,12.62-0.3,21.77-0.3,21.77c-0.22,1.77,0.51,3.1,1.82,4.09
		c-0.8,1.61-1.8,3.18-2.58,4.7c-0.87,1.7-1.24,3.61-1.37,5.3c-13.1-0.54-23.05-0.64-26.32-0.11c-0.58,0.09-1.25,0.19-2,0.28
		C1050.71,777.13,1056.14,772.61,1059.36,768.35z M1112.99,782.65c-2.93-4.68-12.9-4.26-15.19-5.95c-1.75-1.3-2.93-2.65-3.71-3.99
		c0.7-0.05,1.11-0.1,1.11-0.1c2.98-8.74,5.57-16.84,7.81-24.35c8.55,12.61,15.63,21.93,15.63,21.93c0.87,1.86,2.42,2.75,4.31,3.01
		c-0.11,0.55-0.31,1.11-0.61,1.7c-1.49,2.88-1.52,6.38-1.37,8.37C1118.32,783.05,1115.65,782.85,1112.99,782.65z"/>
	<g>
		<g>
			<g>
				<path class="st15" d="M1294.26,771.6l-48.54-3.34c0,0-1.16-6.49,1.37-11.41c2.43-4.72-0.91-8.14-4.24-13.76
					c3.08,2.78,13.71,2.37,20.73,1.55c0.86,1.22,9.52,12.47,12.39,14.28C1279.14,760.92,1293.29,763.54,1294.26,771.6z"/>
				<path class="st15" d="M1237.25,768.26h-48.54c0,0-1.16-6.49,1.37-11.41c2.43-4.72,6.66-9.79,3.34-15.41
					c3.08,2.78,12.83,2.48,19.85,1.65c0.86,1.22-3.25,9.21,5.69,15.83C1221.94,761.13,1236.28,760.2,1237.25,768.26z"/>
				<path class="st16" d="M1229.2,617.02c0,0-23.12-6.91-31.99,13.68c-42.33,30.06-102.88,106.84-107.99,112.21
					c-10.23,10.75-2.33,25.71,39.53,25.35c24.47-0.21,39.44-10.06,46.15-18.91c1.79-2.36,8.35-13.12,16.4-27.52
					c-0.24,14.47-0.34,24.95-0.34,24.95c-1.26,10.25,25.02,7.45,25.02,7.45C1260.54,623.55,1229.2,617.02,1229.2,617.02z"/>
				<path class="st17" d="M1207.53,569.43c-2.46-4.31-7.06-7.33-10.52-9.11c1.45-0.27,3.35,0.44,3.35,0.44
					c-1.86-1.48-7.84-2.4-7.84-2.4c-21.31-26.59-54.18,7.85-60.16,16.82c-5.99,8.97-13.5,18.93-33.75,18.23
					c-39.84-1.38-39.79,33.01-34.23,51.74c2.94,9.9,20.81,33.06,20.81,33.06c4.6-7.39,44.8-41.23,72.33-41
					c9.25-3.27,19.01-12.91,19.77-13.67c-7.24,7.94-12.49,11.7-15.98,13.49C1187.49,633.48,1214.05,580.87,1207.53,569.43z"/>
				<path class="st18" d="M1159.16,637.2c0.07,0.09-3.6,12-14.64,6.78c-7.24-3.43-18.87-18.06-14.39-23.02
					c2.13-2.36,11.51-6.83,21.28-22l1.17,0.89l19.72,14.95c0,0-4.49,5.88-8.25,11.65C1160.89,631.29,1158.23,636.05,1159.16,637.2z"
					/>
				<path class="st17" d="M1151.87,596.1c0,0,0.37-12.29,4.51-20.55c2.96-5.89,20.95-23.62,41.18-7.66c0,0,6.07,4.38,9.42,11.59
					c2.66,5.73,4.92,16.06-15.94,28.5l-6.44,4.56L1151.87,596.1z"/>
				<path class="st19" d="M1125.36,614.46c0,0,7.24,1.21,10.31-2.39c3.06-3.6,9.73-11.21,11.29-6.84
					c1.56,4.37,16.27,17.07,19.67,17.4c3.4,0.33,5.79,1.17,3.86,2.71c-1.92,1.55-1.12,7.73-3.05,8.29
					C1165.51,634.21,1129.8,614.12,1125.36,614.46z"/>
				<path class="st20" d="M1170.91,623.15c0,0-28.44-16.12-16.71-31.49c11.72-15.37,15.95-27.8,34.6-18.16
					c18.65,9.64,17.67,17.55,15.18,23.52C1201.48,602.98,1178.61,626.94,1170.91,623.15z"/>
				<path class="st19" d="M1172.31,635.61c0,0-48.15-31.11-65.01-19.39c-24.86,17.28-19.89,75.63-25.66,83.22
					c-5.77,7.59-38.31,62.03,14.61,67.57c52.91,5.54,65.1-23.7,67.51-45.64C1166.15,699.44,1172.31,635.61,1172.31,635.61z"/>
				<path class="st21" d="M1108.94,635.22c0,0-13.87,67.2,13.61,85.56C1150.04,739.14,1163.87,633.14,1108.94,635.22z"/>
				<path class="st21" d="M1136.6,624.48c0,0,0.53-7.85,8.43-4.85c7.9,3,22.52,7.51,28.19,5.66c5.66-1.85-9.11,22.98-22.6,14.66
					C1137.13,631.64,1136.6,624.48,1136.6,624.48z"/>
				<path class="st17" d="M1201.89,580.65c0,0-21.48,13.49-35.33,9.21c-13.85-4.28-16.86-10.07-16.86-10.07s13.89-0.99,24.2-10.9
					C1173.9,568.89,1202.63,568.66,1201.89,580.65z"/>
				<path class="st20" d="M1238.5,668.24c0,0,10.89,4.16,8.73,15.11c-2.17,10.95-6.5,7.28-6.5,7.28L1238.5,668.24z"/>
				<path class="st17" d="M1198.86,580.99c0,0,2.68,7.4,1.09,12.14c-1.59,4.73-7.11,13.16-4.23,14.45c0,0,15.16-8.84,13.94-19.6
					C1208.37,576.58,1198.86,580.99,1198.86,580.99z"/>
				<path class="st22" d="M1217.2,617.02C1217.2,617.02,1217.2,617.03,1217.2,617.02c-2.15-5.4-6.85-8.74-14.92-9.14
					c-35.3-1.75-120.15,128.27-126.58,135.03c-10.23,10.75-2.33,25.71,39.53,25.35c24.47-0.21,34.12-10.48,40.82-19.33
					c3.07-4.05,25.32-35.04,42.42-66.94c14.34,29.95,44.38,69.47,44.38,69.47c4.46,9.54,24.51-3.19,24.51-3.19
					C1219.32,618.75,1217.2,617.02,1217.2,617.02z"/>
				<path class="st23" d="M1104.96,620.97c0,0-12.69,17.18,26.76,32.93c39.45,15.76,44.09,19.61,51.78,21.01
					c11.98,2.19,58.02,1.88,58.02,1.88s1.21-6.4-3.03-8.56c-6.79-3.46-46-9.08-51.29-10.93
					C1181.92,655.45,1125.58,602.36,1104.96,620.97z"/>
				<path class="st19" d="M1116.16,613.61c0,0,20.15,0.71,62.18,34.66c0,0,6.43,6.85,9.63,7.3c3.2,0.46,11.87,2.45,12.06,4.39
					c0.19,1.93-10.68,26.18-24.5,26.87c-13.83,0.69-80.44-42.5-75.89-56.53C1104.17,616.28,1116.16,613.61,1116.16,613.61z"/>
			</g>
			<g>
				<rect x="1035.2" y="772.54" class="st24" width="177.69" height="125.54"/>
				<rect x="1140.97" y="772.55" class="st25" width="160.77" height="125.54"/>
				<g>
					<path class="st26" d="M1167.74,796.69c0-1.38,1.32-2.5,2.95-2.5c1.63,0,2.95,1.12,2.95,2.5c0,1.38-1.32,2.5-2.95,2.5
						C1169.06,799.19,1167.74,798.07,1167.74,796.69z"/>
					<path class="st26" d="M1275.87,796.69c0-1.38,1.32-2.5,2.95-2.5c1.63,0,2.95,1.12,2.95,2.5c0,1.38-1.32,2.5-2.95,2.5
						C1277.19,799.19,1275.87,798.07,1275.87,796.69z"/>
					<path class="st26" d="M1167.74,875.77c0-1.38,1.32-2.5,2.95-2.5c1.63,0,2.95,1.12,2.95,2.5c0,1.38-1.32,2.5-2.95,2.5
						C1169.06,878.27,1167.74,877.15,1167.74,875.77z"/>
					<path class="st26" d="M1275.87,875.77c0-1.38,1.32-2.5,2.95-2.5c1.63,0,2.95,1.12,2.95,2.5c0,1.38-1.32,2.5-2.95,2.5
						C1277.19,878.27,1275.87,877.15,1275.87,875.77z"/>
				</g>
				<g>
					<path class="st27" d="M1051.93,796.69c0-1.38,0.82-2.5,1.82-2.5c1.01,0,1.83,1.12,1.83,2.5c0,1.38-0.82,2.5-1.83,2.5
						C1052.75,799.19,1051.93,798.07,1051.93,796.69z"/>
					<path class="st27" d="M1118.91,796.69c0-1.38,0.82-2.5,1.82-2.5c1.01,0,1.83,1.12,1.83,2.5c0,1.38-0.82,2.5-1.83,2.5
						C1119.72,799.19,1118.91,798.07,1118.91,796.69z"/>
					<path class="st27" d="M1051.93,875.77c0-1.38,0.82-2.5,1.82-2.5c1.01,0,1.83,1.12,1.83,2.5c0,1.38-0.82,2.5-1.83,2.5
						C1052.75,878.27,1051.93,877.15,1051.93,875.77z"/>
					<path class="st27" d="M1118.91,875.77c0-1.38,0.82-2.5,1.82-2.5c1.01,0,1.83,1.12,1.83,2.5c0,1.38-0.82,2.5-1.83,2.5
						C1119.72,878.27,1118.91,877.15,1118.91,875.77z"/>
				</g>
				<path class="st26" d="M1035.2,772.75c0,0,24.15-19.55,40.08-13.59c20.97,7.85,70.55,5.66,83.06,3.64
					c12.51-2.02,110.23,4.02,143.4,9.75L1035.2,772.75z"/>
				<path class="st28" d="M1301.74,865.15v32.93h-160.77V772.55h26.97l0.53,0.2C1168.47,772.75,1182.9,857.9,1301.74,865.15z"/>
			</g>
		</g>
		<g>
			<path class="st16" d="M1338.65,794.04c0,0-30.94-3.84-32.73-8.22c0,0,2.15-3.96-1.25-4.99c-0.91-0.28-2.44-0.79-3.12-0.03
				l0.04,8.07c0,0,3.33,2.85,5.21,5.15c1.03,1.27,21.02,8.6,21.02,8.6L1338.65,794.04z"/>
			<path class="st16" d="M1402.39,853.25c2.93-3.71-0.11-29.96-21.23-21.99c-4.48,1.19-9.88,4.03-16.35,9.22
				c0,0-9.28,19.16,27.31,31.84c0,0,3.63,1.37,4.14,4.3c0.52,2.92,1.09,16.11-0.15,16.51c-1.24,0.4-3.08-1.11-4.42,0.55
				c-1.34,1.66-0.87,4.41-0.87,4.41h13.29c0,0,6.35-29.6,6-31.95C1409.76,863.78,1398.91,857.66,1402.39,853.25z"/>
			<path class="st15" d="M1350.23,745.98c0,0,7.04,12.93,3.15,16.81l-10.93-7.7C1342.45,755.09,1342.4,751.29,1350.23,745.98z"/>
			<path class="st29" d="M1425.61,815.63c-2.87-4.56-7.17-12.19-1.5-15.3c4.84-2.65,2.98-8.19,0.19-9.51
				c-5.89-2.79-11.88,0.74-14.68,4.18c-5.34,6.55,1.75,16.79,1.75,16.79c6.7,12.65-7.1,19.24-13.75,21.59
				c-3.8-4.95-7.71-8.67-11.21-11.57c-2.29-1.91-4.4-3.46-6.16-4.78c-18.73-14.04-14.19-19.17-18.64-25.48
				c-0.87-1.25-4.32-4.65-5.23-5.74c-0.91-1.08-1.23-4.92-1.34-8.3c2.1-1.57,2.34-3.33,2.34-3.33c0.2,0.72-0.02,1.45-0.02,1.45
				c2.18-1.55,1.69-5.13,1.69-5.13c0.48,0.52,0.67,1.63,0.67,1.63c1.1-5.56-2.81-10.1-2.84-10.14c0.69-5.23-4.26-14.32-4.26-14.32
				s0.35,6.74,1.1,10.18c-1.23-1.12-2.69-2.08-4.36-2.81c-3.91-1.7-9.24-3.3-14.89,1.56c-1.28,1.1-5.08,2-6.88,1.79
				c-0.99-0.11-3.24,4.23-3.33,4.82c-0.98,6.56,1.4,9.81,5.67,13.17c0.6,1.48,1.06,3.47,0.01,4.8c0,0,0.9-0.32,1.01-0.58
				c-0.08,0.35-0.56,2.41-1.85,3.34c0,0,0.58-0.06,0.87-0.18c-1.12,1.25-5.39,6.42-5.33,12.78c-8.97,0.07-17.51-0.42-18.33-2.43
				c0,0,1.93-3.32-1.25-4.99c-0.83-0.43-2.23-0.74-3.49-0.71l-0.16,9.06c0,0,3.9,2.53,5.77,4.83c0.64,0.79,13.2,5.76,22.59,9.39
				c5.47,20.77,23.03,32.78,28.84,36.27c0.84,6.35,5.14,14.6,17.47,24.22c0,0,2.86,2.38,2.2,5.28c-0.66,2.9-5.29,15.46-6.61,15.46
				c-1.32,0-5.73-1.67-7.64-0.51c-1.91,1.16,0.73,5.67,0.73,5.67h2.72h8h2.72c0,0,16.6-23.96,17.19-26.28
				c0.59-2.32-7.2-11.34-2.2-14.43c2.14-1.33,5.12-8.59,4.5-15.27C1404.26,840.1,1434.6,829.91,1425.61,815.63z"/>
			<path class="st29" d="M1344.85,756.79l10.94,7.7c0.62-0.63,0.97-1.49,1.1-2.5c0.69-5.23-4.26-14.32-4.26-14.32
				C1344.79,752.97,1344.85,756.79,1344.85,756.79z"/>
			<path class="st16" d="M1327.28,758.43c0,0,0.61-0.37,1.26-0.08c0,0-0.17,2.18-2.6,2.32
				C1325.93,760.66,1326.63,758.77,1327.28,758.43z"/>
			<g>
				<path class="st16" d="M1331.75,763.32c0.09,0.03,9.21,3.01,15.75,9.58l0,0c-6.65-6.7-15.56-9.82-15.65-9.85L1331.75,763.32z"/>
			</g>
			<g>
				<path class="st16" d="M1330.9,763.89c0.1,0.05,9.66,5.75,15.07,14.96l0,0c-5.51-9.37-14.77-15.19-14.87-15.24L1330.9,763.89z"/>
			</g>
			<g>
				<path class="st16" d="M1329.91,764.57c0.07,0.06,6.79,6.23,9.4,14.65l0,0c-2.65-8.57-9.11-14.79-9.18-14.85L1329.91,764.57z"/>
			</g>
		</g>
	</g>
</g>
<rect x="852.18" y="1441.16" class="st2" width="1143.64" height="86.58"/>
<text transform="matrix(1 0 0 1 1013.2458 1492.2836)" class="st30 st31">OOOPS...PAGE NOT FOUND</text>
</svg>
